<mxfile host="app.diagrams.net" modified="2024-05-14T10:54:09.513Z" agent="Mozilla/5.0 (Macintosh; Intel Mac OS X 10_15_7) AppleWebKit/537.36 (KHTML, like Gecko) Chrome/124.0.0.0 Safari/537.36" etag="F4nx1RYaoEJnQY3o3xWb" version="24.4.0" type="github">
  <diagram name="Page-1" id="-98pJoUqqj__4yH2-iSp">
    <mxGraphModel dx="1224" dy="679" grid="1" gridSize="10" guides="1" tooltips="1" connect="1" arrows="1" fold="1" page="1" pageScale="1" pageWidth="850" pageHeight="1100" math="0" shadow="0">
      <root>
        <mxCell id="0" />
        <mxCell id="1" parent="0" />
        <mxCell id="me1G7gAer3CvM7mz6-fR-60" value="" style="rounded=0;whiteSpace=wrap;html=1;fillColor=#f8cecc;strokeColor=#b85450;fontStyle=1" parent="1" vertex="1">
          <mxGeometry x="240" y="120" width="920" height="510" as="geometry" />
        </mxCell>
        <mxCell id="4dctXpntgjXw3aF1l8x9-22" value="" style="rounded=0;whiteSpace=wrap;html=1;fontSize=16;fillColor=#d5e8d4;strokeColor=#82b366;fontStyle=1" parent="1" vertex="1">
          <mxGeometry x="440" y="162" width="200" height="160" as="geometry" />
        </mxCell>
        <mxCell id="4dctXpntgjXw3aF1l8x9-23" value="b" style="rounded=0;whiteSpace=wrap;html=1;fontSize=16;fillColor=#dae8fc;strokeColor=#6c8ebf;fontStyle=1" parent="1" vertex="1">
          <mxGeometry x="280" y="162" width="120" height="40" as="geometry" />
        </mxCell>
        <mxCell id="4dctXpntgjXw3aF1l8x9-24" value="" style="endArrow=classic;html=1;rounded=0;fontSize=16;fontStyle=1;strokeWidth=2;endSize=9;" parent="1" edge="1">
          <mxGeometry width="50" height="50" relative="1" as="geometry">
            <mxPoint x="360" y="182" as="sourcePoint" />
            <mxPoint x="440" y="182" as="targetPoint" />
          </mxGeometry>
        </mxCell>
        <mxCell id="4dctXpntgjXw3aF1l8x9-25" value="x = 20" style="rounded=0;whiteSpace=wrap;html=1;fontSize=16;fontStyle=1" parent="1" vertex="1">
          <mxGeometry x="460" y="182" width="160" height="40" as="geometry" />
        </mxCell>
        <mxCell id="4dctXpntgjXw3aF1l8x9-26" value="neighbour:&amp;nbsp;&lt;div&gt;&lt;span style=&quot;font-size: 12px; text-wrap: nowrap;&quot;&gt;Vertex reference&lt;/span&gt;&lt;/div&gt;" style="rounded=0;whiteSpace=wrap;html=1;fontSize=16;fillColor=#dae8fc;strokeColor=#6c8ebf;fontStyle=1" parent="1" vertex="1">
          <mxGeometry x="460" y="260" width="160" height="40" as="geometry" />
        </mxCell>
        <mxCell id="4dctXpntgjXw3aF1l8x9-29" value="Vertex reference" style="text;html=1;align=center;verticalAlign=middle;resizable=0;points=[];autosize=1;strokeColor=none;fillColor=none;fontStyle=1" parent="1" vertex="1">
          <mxGeometry x="285" y="202" width="110" height="30" as="geometry" />
        </mxCell>
        <mxCell id="4dctXpntgjXw3aF1l8x9-35" value="Vertex instance" style="text;html=1;align=center;verticalAlign=middle;resizable=0;points=[];autosize=1;strokeColor=none;fillColor=none;fontStyle=1" parent="1" vertex="1">
          <mxGeometry x="435" y="322" width="110" height="30" as="geometry" />
        </mxCell>
        <mxCell id="YXLnYPh2qQ8F-7CPZx4I-1" value="a" style="rounded=0;whiteSpace=wrap;html=1;fontSize=16;fillColor=#dae8fc;strokeColor=#6c8ebf;fontStyle=1" parent="1" vertex="1">
          <mxGeometry x="280" y="410" width="120" height="40" as="geometry" />
        </mxCell>
        <mxCell id="YXLnYPh2qQ8F-7CPZx4I-2" value="" style="endArrow=classic;html=1;rounded=0;fontSize=16;fontStyle=1;strokeWidth=2;endSize=9;" parent="1" edge="1">
          <mxGeometry width="50" height="50" relative="1" as="geometry">
            <mxPoint x="360" y="430" as="sourcePoint" />
            <mxPoint x="440" y="430" as="targetPoint" />
          </mxGeometry>
        </mxCell>
        <mxCell id="YXLnYPh2qQ8F-7CPZx4I-3" value="Vertex&amp;nbsp;reference" style="text;html=1;align=center;verticalAlign=middle;resizable=0;points=[];autosize=1;strokeColor=none;fillColor=none;fontStyle=1" parent="1" vertex="1">
          <mxGeometry x="285" y="450" width="110" height="30" as="geometry" />
        </mxCell>
        <mxCell id="YXLnYPh2qQ8F-7CPZx4I-4" value="y = 90" style="rounded=0;whiteSpace=wrap;html=1;fontSize=16;fontStyle=1" parent="1" vertex="1">
          <mxGeometry x="460" y="222" width="160" height="38" as="geometry" />
        </mxCell>
        <mxCell id="YXLnYPh2qQ8F-7CPZx4I-5" value="" style="endArrow=classic;html=1;rounded=0;fontSize=16;fontStyle=1;entryX=0.75;entryY=0;entryDx=0;entryDy=0;strokeWidth=2;endSize=9;" parent="1" target="YXLnYPh2qQ8F-7CPZx4I-6" edge="1">
          <mxGeometry width="50" height="50" relative="1" as="geometry">
            <mxPoint x="590" y="280" as="sourcePoint" />
            <mxPoint x="591" y="400" as="targetPoint" />
          </mxGeometry>
        </mxCell>
        <mxCell id="YXLnYPh2qQ8F-7CPZx4I-6" value="" style="rounded=0;whiteSpace=wrap;html=1;fontSize=16;fillColor=#d5e8d4;strokeColor=#82b366;fontStyle=1" parent="1" vertex="1">
          <mxGeometry x="440" y="410" width="200" height="160" as="geometry" />
        </mxCell>
        <mxCell id="YXLnYPh2qQ8F-7CPZx4I-7" value="x = 10" style="rounded=0;whiteSpace=wrap;html=1;fontSize=16;fontStyle=1" parent="1" vertex="1">
          <mxGeometry x="460" y="430" width="160" height="40" as="geometry" />
        </mxCell>
        <mxCell id="YXLnYPh2qQ8F-7CPZx4I-8" value="neighbour&amp;nbsp;&lt;div&gt;&lt;span style=&quot;font-size: 12px; text-wrap: nowrap;&quot;&gt;Vertex reference&lt;/span&gt;&lt;/div&gt;" style="rounded=0;whiteSpace=wrap;html=1;fontSize=16;fillColor=#dae8fc;strokeColor=#6c8ebf;fontStyle=1" parent="1" vertex="1">
          <mxGeometry x="460" y="508" width="160" height="40" as="geometry" />
        </mxCell>
        <mxCell id="YXLnYPh2qQ8F-7CPZx4I-9" value="Vertex instance" style="text;html=1;align=center;verticalAlign=middle;resizable=0;points=[];autosize=1;strokeColor=none;fillColor=none;fontStyle=1" parent="1" vertex="1">
          <mxGeometry x="435" y="570" width="110" height="30" as="geometry" />
        </mxCell>
        <mxCell id="YXLnYPh2qQ8F-7CPZx4I-10" value="y = 70" style="rounded=0;whiteSpace=wrap;html=1;fontSize=16;fontStyle=1" parent="1" vertex="1">
          <mxGeometry x="460" y="470" width="160" height="38" as="geometry" />
        </mxCell>
        <mxCell id="44iMcxNmQjFMXjOdxD5Y-11" value="" style="rounded=0;whiteSpace=wrap;html=1;fontSize=16;fillColor=#d5e8d4;strokeColor=#82b366;fontStyle=1" vertex="1" parent="1">
          <mxGeometry x="720" y="280" width="200" height="160" as="geometry" />
        </mxCell>
        <mxCell id="44iMcxNmQjFMXjOdxD5Y-12" value="c" style="rounded=0;whiteSpace=wrap;html=1;fontSize=16;fillColor=#dae8fc;strokeColor=#6c8ebf;fontStyle=1" vertex="1" parent="1">
          <mxGeometry x="1000" y="282" width="120" height="40" as="geometry" />
        </mxCell>
        <mxCell id="44iMcxNmQjFMXjOdxD5Y-13" value="" style="endArrow=classic;html=1;rounded=0;fontSize=16;fontStyle=1;entryX=1;entryY=0.138;entryDx=0;entryDy=0;entryPerimeter=0;strokeWidth=2;endSize=9;" edge="1" parent="1" target="44iMcxNmQjFMXjOdxD5Y-11">
          <mxGeometry width="50" height="50" relative="1" as="geometry">
            <mxPoint x="1010" y="301.5" as="sourcePoint" />
            <mxPoint x="1090" y="301.5" as="targetPoint" />
          </mxGeometry>
        </mxCell>
        <mxCell id="44iMcxNmQjFMXjOdxD5Y-14" value="x = 60" style="rounded=0;whiteSpace=wrap;html=1;fontSize=16;fontStyle=1" vertex="1" parent="1">
          <mxGeometry x="740" y="300" width="160" height="40" as="geometry" />
        </mxCell>
        <mxCell id="44iMcxNmQjFMXjOdxD5Y-15" value="neighbour:&amp;nbsp;&lt;div&gt;&lt;span style=&quot;font-size: 12px; text-wrap: nowrap;&quot;&gt;Vertex reference&lt;/span&gt;&lt;/div&gt;" style="rounded=0;whiteSpace=wrap;html=1;fontSize=16;fillColor=#dae8fc;strokeColor=#6c8ebf;fontStyle=1" vertex="1" parent="1">
          <mxGeometry x="740" y="378" width="160" height="40" as="geometry" />
        </mxCell>
        <mxCell id="44iMcxNmQjFMXjOdxD5Y-16" value="Vertex reference" style="text;html=1;align=center;verticalAlign=middle;resizable=0;points=[];autosize=1;strokeColor=none;fillColor=none;fontStyle=1" vertex="1" parent="1">
          <mxGeometry x="1005" y="322" width="110" height="30" as="geometry" />
        </mxCell>
        <mxCell id="44iMcxNmQjFMXjOdxD5Y-17" value="Vertex instance" style="text;html=1;align=center;verticalAlign=middle;resizable=0;points=[];autosize=1;strokeColor=none;fillColor=none;fontStyle=1" vertex="1" parent="1">
          <mxGeometry x="715" y="440" width="110" height="30" as="geometry" />
        </mxCell>
        <mxCell id="44iMcxNmQjFMXjOdxD5Y-18" value="y = 10" style="rounded=0;whiteSpace=wrap;html=1;fontSize=16;fontStyle=1" vertex="1" parent="1">
          <mxGeometry x="740" y="340" width="160" height="38" as="geometry" />
        </mxCell>
        <mxCell id="44iMcxNmQjFMXjOdxD5Y-20" value="" style="endArrow=classic;html=1;rounded=0;entryX=1.01;entryY=0.844;entryDx=0;entryDy=0;entryPerimeter=0;strokeWidth=2;endSize=9;" edge="1" parent="1" target="4dctXpntgjXw3aF1l8x9-22">
          <mxGeometry width="50" height="50" relative="1" as="geometry">
            <mxPoint x="760" y="400" as="sourcePoint" />
            <mxPoint x="810" y="350" as="targetPoint" />
          </mxGeometry>
        </mxCell>
        <mxCell id="44iMcxNmQjFMXjOdxD5Y-21" value="" style="endArrow=classic;html=1;rounded=0;entryX=-0.015;entryY=0.863;entryDx=0;entryDy=0;entryPerimeter=0;strokeWidth=2;endSize=9;" edge="1" parent="1" target="44iMcxNmQjFMXjOdxD5Y-11">
          <mxGeometry width="50" height="50" relative="1" as="geometry">
            <mxPoint x="600" y="530" as="sourcePoint" />
            <mxPoint x="650" y="480" as="targetPoint" />
          </mxGeometry>
        </mxCell>
      </root>
    </mxGraphModel>
  </diagram>
</mxfile>
